DataType=double
version=3
OpenSimVersion=4.2-2021-03-12-fcedec9
endheader
time	ground_force_r_vx	ground_force_r_vy	ground_force_r_vz	ground_force_r_px	ground_force_r_py	ground_force_r_pz	ground_force_l_vx	ground_force_l_vy	ground_force_l_vz	ground_force_l_px	ground_force_l_py	ground_force_l_pz	ground_torque_r_x	ground_torque_r_y	ground_torque_r_z	ground_torque_l_x	ground_torque_l_y	ground_torque_l_z
1.155520721700051	0	0	0	0	0	0	-828.1491125875641	322.6780485777239	0	0	0	0	0	0	0	0	0	-5.138711632319191
1.156958325308551	0	0	0	0	0	0	-1558.613485592344	561.926449906852	0	0	0	0	0	0	0	0	0	-10.09545118831785
1.158395928917051	0	0	0	0	0	0	-2524.532057087517	882.640684898898	0	0	0	0	0	0	0	0	0	-14.97853261988258
1.159833532525552	0	0	0	0	0	0	-3562.158381869614	1256.233257576404	0	0	0	0	0	0	0	0	0	-17.25692765765575
1.161271136134052	0	0	0	0	0	0	-4516.859005089816	1655.190070754374	0	0	0	0	0	0	0	0	0	-15.39745980735197
1.162708739742552	0	0	0	0	0	0	-5240.06724903831	2050.056948348204	0	0	0	0	0	0	0	0	0	-8.725801680679895
1.164146343351053	0	0	0	0	0	0	-5504.412526496075	2397.28043164031	0	0	0	0	0	0	0	0	0	3.860709332729561
1.165583946959553	0	0	0	0	0	0	-5140.60894762806	2655.271932969409	0	0	0	0	0	0	0	0	0	23.44471544803995
1.167021550568053	0	0	0	0	0	0	-4394.133686195581	2838.189988098854	0	0	0	0	0	0	0	0	0	49.58794359200571
1.168459154176553	0	0	0	0	0	0	-3878.461380784604	3191.176211529169	0	0	0	0	0	0	0	0	0	107.9132231007336
1.169896757785053	0	0	0	0	0	0	-3705.485301160082	3868.410521758242	0	0	0	0	0	0	0	0	0	218.113552097805
1.171334361393554	0	0	0	0	0	0	-2004.570437275116	4817.570384738373	0	0	0	0	0	0	0	0	0	403.700215356122
1.172771965002054	0	0	0	0	0	0	-1750.479627968057	5113.220629762104	0	0	0	0	0	0	0	0	0	462.4537550476357
1.174209568610554	0	0	0	0	0	0	-1363.214502369824	4773.902043902182	0	0	0	0	0	0	0	0	0	416.0695406938921
1.175647172219054	0	0	0	0	0	0	-1080.051189922526	4372.021256451426	0	0	0	0	0	0	0	0	0	356.6696316774512
1.177084775827555	0	0	0	0	0	0	-934.5050184644792	4222.94250308534	0	0	0	0	0	0	0	0	0	337.1551048985078
1.178522379436055	0	0	0	0	0	0	-861.2876237506421	4260.869484340059	0	0	0	0	0	0	0	0	0	350.8641000213801
1.179959983044555	0	0	0	0	0	0	-825.7540786172066	4325.480703956945	0	0	0	0	0	0	0	0	0	378.2380384627502
1.181397586653055	0	0	0	0	0	0	-812.055695119423	4338.446136480317	0	0	0	0	0	0	0	0	0	407.8549663495448
1.182835190261556	0	0	0	0	0	0	-798.7784308572809	4282.419582665827	0	0	0	0	0	0	0	0	0	433.9510239062951
1.184272793870056	0	0	0	0	0	0	-778.9573277740301	4182.520751410603	0	0	0	0	0	0	0	0	0	457.0324415824389
1.185710397478556	0	0	0	0	0	0	-751.2698882794491	4050.978818667901	0	0	0	0	0	0	0	0	0	477.3262364315436
1.187148001087057	0	0	0	0	0	0	-720.2311003569329	3903.907894159419	0	0	0	0	0	0	0	0	0	495.4943886420636
1.188585604695557	0	0	0	0	0	0	-697.6003217277263	3746.613590730659	0	0	0	0	0	0	0	0	0	511.0211068174729
1.190023208304057	0	0	0	0	0	0	-779.2754382226688	3578.078926468045	0	0	0	0	0	0	0	0	0	521.5698642815404
1.191460811912557	0	0	0	0	0	0	-936.9524787215995	3405.25041701205	0	0	0	0	0	0	0	0	0	528.254470858195
1.192898415521058	0	0	0	0	0	0	-1043.260120196904	3212.541368789004	0	0	0	0	0	0	0	0	0	531.5765302908541
1.194336019129558	0	0	0	0	0	0	-1035.44323142144	3121.029227882101	0	0	0	0	0	0	0	0	0	534.8764641410071
1.195773622738058	0	0	0	0	0	0	-1032.132589881147	3089.926201220197	0	0	0	0	0	0	0	0	0	533.3996583125223
1.197211226346558	0	0	0	0	0	0	-1040.778404183635	3039.060709645757	0	0	0	0	0	0	0	0	0	528.0713814232397
1.198648829955059	0	0	0	0	0	0	-1017.421255516069	2990.442773953801	0	0	0	0	0	0	0	0	0	522.837459190134
1.200086433563559	0	0	0	0	0	0	-986.6024767826898	2946.258704068927	0	0	0	0	0	0	0	0	0	517.8521777263703
1.201524037172059	0	0	0	0	0	0	-939.4717915961471	2914.344306201343	0	0	0	0	0	0	0	0	0	514.786288051174
1.202961640780559	0	0	0	0	0	0	-887.9643936453701	2891.295397960357	0	0	0	0	0	0	0	0	0	513.0182832990107
1.20439924438906	0	0	0	0	0	0	-829.7782551701285	2877.067521892223	0	0	0	0	0	0	0	0	0	512.7184820449492
1.20583684799756	0	0	0	0	0	0	-770.3925595249909	2869.385738973057	0	0	0	0	0	0	0	0	0	513.4437199138619
1.20727445160606	0	0	0	0	0	0	-707.4640786737186	2869.729011540533	0	0	0	0	0	0	0	0	0	515.5633074820053
1.20871205521456	0	0	0	0	0	0	-643.6555480440987	2875.813183041214	0	0	0	0	0	0	0	0	0	518.6556665263456
